<svg width="149" height="57" viewBox="0 0 149 57" fill="none" xmlns="http://www.w3.org/2000/svg">
<g clip-path="url(#clip0_488_1913)">
<path d="M18.3833 17.8571H20.3184V28.5H18.3833V17.8571Z" fill="#4AE960"/>
<path d="M28.8476 28.5298L28.8749 30.4624L20.3453 30.5826L20.3179 28.6499L28.8476 28.5298Z" fill="#4AE960"/>
<path d="M36.7662 28.5C36.7662 38.1183 28.969 45.9156 19.3506 45.9156C9.73231 45.9156 1.93506 38.1183 1.93506 28.5C1.93506 18.8817 9.73231 11.0844 19.3506 11.0844C28.969 11.0844 36.7662 18.8817 36.7662 28.5Z" stroke="#4AE960" stroke-width="4"/>
<path d="M64.4167 44.2526C65.0366 44.2526 65.6715 44.1997 66.3216 44.0939C66.9717 43.988 67.5007 43.8595 67.9089 43.7084V46.6336C67.4705 46.8302 66.8583 46.9965 66.0721 47.1325C65.3011 47.2685 64.5452 47.3367 63.8044 47.3367C62.4892 47.3367 61.2949 47.1099 60.2216 46.6563C59.1482 46.1876 58.2865 45.4016 57.6364 44.2979C57.0015 43.1944 56.684 41.6675 56.684 39.7173V24.9776H53.1465V23.1407L56.7067 21.6668L58.2033 16.2698H60.471V22.0296H67.7501V24.9776H60.471V39.6039C60.471 41.161 60.8263 42.3251 61.5368 43.0961C62.2625 43.8671 63.2225 44.2526 64.4167 44.2526ZM76.7074 22.0296V46.8831H72.9431V22.0296H76.7074ZM74.8706 12.7322C75.4904 12.7322 76.0195 12.9363 76.4579 13.3444C76.9115 13.7375 77.1383 14.3573 77.1383 15.2039C77.1383 16.0354 76.9115 16.6552 76.4579 17.0634C76.0195 17.4716 75.4904 17.6757 74.8706 17.6757C74.2205 17.6757 73.6763 17.4716 73.2379 17.0634C72.8146 16.6552 72.603 16.0354 72.603 15.2039C72.603 14.3573 72.8146 13.7375 73.2379 13.3444C73.6763 12.9363 74.2205 12.7322 74.8706 12.7322ZM111.675 21.5761C114.411 21.5761 116.475 22.2941 117.865 23.7303C119.256 25.1514 119.952 27.4417 119.952 30.6013V46.8831H116.233V30.7828C116.233 28.772 115.795 27.2679 114.917 26.2701C114.056 25.2572 112.771 24.7508 111.062 24.7508C108.659 24.7508 106.913 25.4462 105.824 26.837C104.736 28.2279 104.192 30.2763 104.192 32.9823V46.8831H100.449V30.7828C100.449 29.4373 100.253 28.3185 99.8602 27.4266C99.4819 26.5347 98.9082 25.8694 98.137 25.431C97.3804 24.9776 96.4208 24.7508 95.2568 24.7508C93.609 24.7508 92.2862 25.091 91.2885 25.7712C90.2906 26.4515 89.565 27.4644 89.1115 28.8099C88.673 30.1402 88.4539 31.7805 88.4539 33.7306V46.8831H84.6895V22.0296H87.7282L88.2951 25.5444H88.4993C88.9981 24.6828 89.6255 23.9571 90.3814 23.3675C91.1372 22.7779 91.9838 22.3319 92.9212 22.0296C93.8584 21.7272 94.8562 21.5761 95.9144 21.5761C97.8042 21.5761 99.3842 21.9313 100.654 22.6418C101.938 23.3373 102.868 24.403 103.443 25.8392H103.647C104.464 24.403 105.582 23.3373 107.004 22.6418C108.424 21.9313 109.982 21.5761 111.675 21.5761ZM137.253 21.5761C139.37 21.5761 141.184 22.0447 142.696 22.982C144.208 23.9193 145.364 25.2345 146.165 26.9277C146.966 28.6058 147.367 30.5711 147.367 32.8237V35.1593H130.201C130.247 38.077 130.972 40.2993 132.378 41.8262C133.784 43.3531 135.764 44.1165 138.32 44.1165C139.892 44.1165 141.282 43.9729 142.492 43.6857C143.701 43.3984 144.956 42.9751 146.256 42.4158V45.7266C145.001 46.2859 143.754 46.6941 142.515 46.9511C141.29 47.2081 139.839 47.3367 138.161 47.3367C135.772 47.3367 133.686 46.8529 131.902 45.8854C130.133 44.9026 128.757 43.4665 127.774 41.5767C126.792 39.6871 126.301 37.3741 126.301 34.6378C126.301 31.9619 126.747 29.6489 127.639 27.6987C128.546 25.7334 129.816 24.2216 131.448 23.1634C133.096 22.1051 135.031 21.5761 137.253 21.5761ZM137.208 24.66C135.197 24.66 133.595 25.3176 132.401 26.6329C131.206 27.9482 130.496 29.7849 130.27 32.1433H143.421C143.407 30.6618 143.173 29.3616 142.719 28.243C142.281 27.1091 141.607 26.2323 140.701 25.6125C139.793 24.9776 138.629 24.66 137.208 24.66Z" fill="#4AE960"/>
</g>
<defs>
<clipPath id="clip0_488_1913">
<rect width="149" height="56.1169" fill="white" transform="translate(0 0.441528)"/>
</clipPath>
</defs>
</svg>
