<svg width="1004" height="170" viewBox="0 0 1004 170" fill="none" xmlns="http://www.w3.org/2000/svg">
<mask id="path-1-outside-1_96_10" maskUnits="userSpaceOnUse" x="-0.716797" y="-0.488037" width="1005" height="171" fill="black">
<rect fill="white" x="-0.716797" y="-0.488037" width="1005" height="171"/>
<path d="M27.4967 137.512V35.752H40.9367L42.4727 61.48L40.9367 61.096C42.2167 52.392 44.9687 45.992 49.1927 41.896C53.5447 37.8 59.3047 35.752 66.4727 35.752H87.4007V50.344H66.6647C61.6727 50.344 57.4487 51.368 53.9927 53.416C50.6647 55.336 48.1047 58.216 46.3127 62.056C44.5207 65.768 43.6247 70.44 43.6247 76.072V137.512H27.4967ZM1.0007 137.512V123.304H75.8807V137.512H1.0007ZM1.0007 49.96V35.752H36.3287V49.96H1.0007ZM155.102 137.512V35.752H171.23V137.512H155.102ZM114.206 137.512V123.304H206.366V137.512H114.206ZM116.126 49.96V35.752H171.23V49.96H116.126ZM153.566 19.816V0.999958H170.462V19.816H153.566ZM270.995 168.616C263.699 168.616 257.107 167.4 251.219 164.968C245.331 162.536 240.403 159.08 236.435 154.6C232.467 150.12 229.779 144.936 228.371 139.048L245.267 137.896C246.803 142.632 249.491 146.344 253.331 149.032C257.299 151.848 263.187 153.256 270.995 153.256C280.211 153.256 287.251 151.4 292.115 147.688C297.107 143.976 299.603 138.408 299.603 130.984V114.472C297.171 119.848 293.267 124.136 287.891 127.336C282.515 130.536 276.499 132.136 269.843 132.136C261.267 132.136 253.587 130.024 246.803 125.8C240.147 121.576 234.899 115.752 231.059 108.328C227.347 100.904 225.491 92.392 225.491 82.792C225.491 73.064 227.347 64.552 231.059 57.256C234.771 49.832 239.891 44.008 246.419 39.784C253.075 35.56 260.627 33.448 269.075 33.448C276.243 33.448 282.643 35.112 288.275 38.44C294.035 41.768 298.067 46.248 300.371 51.88V35.752H315.731V130.6C315.731 138.536 313.939 145.32 310.355 150.952C306.771 156.712 301.651 161.064 294.995 164.008C288.339 167.08 280.339 168.616 270.995 168.616ZM270.611 116.776C279.315 116.776 286.291 113.768 291.539 107.752C296.787 101.608 299.475 93.288 299.603 82.792C299.731 75.752 298.579 69.736 296.147 64.744C293.843 59.624 290.451 55.72 285.971 53.032C281.619 50.216 276.499 48.808 270.611 48.808C261.651 48.808 254.675 51.88 249.683 58.024C244.819 64.04 242.387 72.296 242.387 82.792C242.387 93.288 244.883 101.608 249.875 107.752C254.995 113.768 261.907 116.776 270.611 116.776ZM348.296 137.512V1.19196H364.424V58.216L362.504 57.832C363.784 52.2 365.96 47.592 369.032 44.008C372.104 40.424 375.88 37.8 380.36 36.136C384.84 34.344 389.704 33.448 394.952 33.448C402.248 33.448 408.392 35.112 413.384 38.44C418.504 41.64 422.344 46.184 424.904 52.072C427.592 57.832 428.936 64.488 428.936 72.04V137.512H412.808V76.648C412.808 66.792 411.016 59.496 407.432 54.76C403.976 50.024 398.664 47.656 391.496 47.656C383.304 47.656 376.712 50.152 371.72 55.144C366.856 60.136 364.424 67.368 364.424 76.84V137.512H348.296ZM516.797 137.512C506.941 137.512 499.581 135.208 494.717 130.6C489.853 125.992 487.421 118.952 487.421 109.48V11.944H503.549V109.48C503.549 114.216 504.637 117.736 506.813 120.04C508.989 122.216 512.317 123.304 516.797 123.304H544.061V137.512H516.797ZM453.821 49.96V35.752H544.061V49.96H453.821ZM578.546 137.512V1.19196H594.674V58.216L592.754 57.832C594.034 52.2 596.21 47.592 599.282 44.008C602.354 40.424 606.13 37.8 610.61 36.136C615.09 34.344 619.954 33.448 625.202 33.448C632.498 33.448 638.642 35.112 643.634 38.44C648.754 41.64 652.594 46.184 655.154 52.072C657.842 57.832 659.186 64.488 659.186 72.04V137.512H643.058V76.648C643.058 66.792 641.266 59.496 637.682 54.76C634.226 50.024 628.914 47.656 621.746 47.656C613.554 47.656 606.962 50.152 601.97 55.144C597.106 60.136 594.674 67.368 594.674 76.84V137.512H578.546ZM718.631 139.816C712.231 139.816 706.471 138.664 701.351 136.36C696.231 134.056 692.199 130.856 689.255 126.76C686.311 122.536 684.839 117.672 684.839 112.168C684.839 103.464 687.399 96.744 692.519 92.008C697.767 87.144 705.959 83.624 717.095 81.448L751.271 74.536C751.271 65.832 749.287 59.368 745.319 55.144C741.479 50.92 735.911 48.808 728.615 48.808C721.575 48.808 716.071 50.408 712.103 53.608C708.135 56.68 705.383 61.16 703.847 67.048L686.759 65.704C688.679 56.104 693.223 48.36 700.391 42.472C707.687 36.456 717.095 33.448 728.615 33.448C740.903 33.448 750.439 37.16 757.223 44.584C764.007 51.88 767.399 61.992 767.399 74.92V117.16C767.399 119.464 767.911 121.064 768.935 121.96C769.959 122.856 771.495 123.304 773.543 123.304H780.071V137.512C779.303 137.64 778.087 137.704 776.423 137.704C774.759 137.832 773.159 137.896 771.623 137.896C767.271 137.896 763.559 137.192 760.487 135.784C757.543 134.376 755.303 132.136 753.767 129.064C752.231 125.864 751.399 121.768 751.271 116.776H754.343C753.447 121.128 751.271 125.096 747.815 128.68C744.487 132.136 740.263 134.888 735.143 136.936C730.023 138.856 724.519 139.816 718.631 139.816ZM720.167 125.608C727.079 125.608 732.839 124.456 737.447 122.152C742.055 119.72 745.511 116.392 747.815 112.168C750.119 107.816 751.271 102.824 751.271 97.192V88.36L720.167 94.504C713.255 95.784 708.455 97.768 705.767 100.456C703.079 103.016 701.735 106.408 701.735 110.632C701.735 115.368 703.335 119.08 706.535 121.768C709.863 124.328 714.407 125.608 720.167 125.608ZM805.724 137.512V35.752H820.508L821.084 61.672L819.164 59.944C820.444 53.928 822.748 49 826.076 45.16C829.532 41.192 833.628 38.248 838.364 36.328C843.1 34.408 848.092 33.448 853.34 33.448C861.148 33.448 867.612 35.176 872.732 38.632C877.98 42.088 881.948 46.76 884.636 52.648C887.324 58.408 888.668 64.872 888.668 72.04V137.512H872.54V76.648C872.54 67.176 870.684 60.008 866.972 55.144C863.26 50.152 857.564 47.656 849.884 47.656C844.636 47.656 839.9 48.808 835.676 51.112C831.452 53.288 828.06 56.552 825.5 60.904C823.068 65.128 821.852 70.376 821.852 76.648V137.512H805.724ZM955.985 139.816C947.025 139.816 939.281 137.64 932.753 133.288C926.225 128.936 921.169 122.792 917.585 114.856C914.129 106.92 912.401 97.512 912.401 86.632C912.401 75.752 914.129 66.344 917.585 58.408C921.169 50.472 926.225 44.328 932.753 39.976C939.281 35.624 947.025 33.448 955.985 33.448C963.153 33.448 969.425 35.176 974.801 38.632C980.177 41.96 984.081 45.736 986.513 49.96V1.19196H1002.64V137.512H988.049L987.473 122.152C984.657 127.656 980.497 132.008 974.993 135.208C969.489 138.28 963.153 139.816 955.985 139.816ZM956.945 124.456C963.089 124.456 968.337 122.92 972.689 119.848C977.169 116.776 980.561 112.424 982.865 106.792C985.297 101.032 986.513 94.312 986.513 86.632C986.513 78.696 985.297 71.912 982.865 66.28C980.561 60.648 977.169 56.36 972.689 53.416C968.209 50.344 962.833 48.808 956.561 48.808C948.241 48.808 941.585 52.2 936.593 58.984C931.729 65.64 929.297 74.856 929.297 86.632C929.297 98.28 931.729 107.496 936.593 114.28C941.585 121.064 948.369 124.456 956.945 124.456Z"/>
</mask>
<path d="M27.4967 137.512V35.752H40.9367L42.4727 61.48L40.9367 61.096C42.2167 52.392 44.9687 45.992 49.1927 41.896C53.5447 37.8 59.3047 35.752 66.4727 35.752H87.4007V50.344H66.6647C61.6727 50.344 57.4487 51.368 53.9927 53.416C50.6647 55.336 48.1047 58.216 46.3127 62.056C44.5207 65.768 43.6247 70.44 43.6247 76.072V137.512H27.4967ZM1.0007 137.512V123.304H75.8807V137.512H1.0007ZM1.0007 49.96V35.752H36.3287V49.96H1.0007ZM155.102 137.512V35.752H171.23V137.512H155.102ZM114.206 137.512V123.304H206.366V137.512H114.206ZM116.126 49.96V35.752H171.23V49.96H116.126ZM153.566 19.816V0.999958H170.462V19.816H153.566ZM270.995 168.616C263.699 168.616 257.107 167.4 251.219 164.968C245.331 162.536 240.403 159.08 236.435 154.6C232.467 150.12 229.779 144.936 228.371 139.048L245.267 137.896C246.803 142.632 249.491 146.344 253.331 149.032C257.299 151.848 263.187 153.256 270.995 153.256C280.211 153.256 287.251 151.4 292.115 147.688C297.107 143.976 299.603 138.408 299.603 130.984V114.472C297.171 119.848 293.267 124.136 287.891 127.336C282.515 130.536 276.499 132.136 269.843 132.136C261.267 132.136 253.587 130.024 246.803 125.8C240.147 121.576 234.899 115.752 231.059 108.328C227.347 100.904 225.491 92.392 225.491 82.792C225.491 73.064 227.347 64.552 231.059 57.256C234.771 49.832 239.891 44.008 246.419 39.784C253.075 35.56 260.627 33.448 269.075 33.448C276.243 33.448 282.643 35.112 288.275 38.44C294.035 41.768 298.067 46.248 300.371 51.88V35.752H315.731V130.6C315.731 138.536 313.939 145.32 310.355 150.952C306.771 156.712 301.651 161.064 294.995 164.008C288.339 167.08 280.339 168.616 270.995 168.616ZM270.611 116.776C279.315 116.776 286.291 113.768 291.539 107.752C296.787 101.608 299.475 93.288 299.603 82.792C299.731 75.752 298.579 69.736 296.147 64.744C293.843 59.624 290.451 55.72 285.971 53.032C281.619 50.216 276.499 48.808 270.611 48.808C261.651 48.808 254.675 51.88 249.683 58.024C244.819 64.04 242.387 72.296 242.387 82.792C242.387 93.288 244.883 101.608 249.875 107.752C254.995 113.768 261.907 116.776 270.611 116.776ZM348.296 137.512V1.19196H364.424V58.216L362.504 57.832C363.784 52.2 365.96 47.592 369.032 44.008C372.104 40.424 375.88 37.8 380.36 36.136C384.84 34.344 389.704 33.448 394.952 33.448C402.248 33.448 408.392 35.112 413.384 38.44C418.504 41.64 422.344 46.184 424.904 52.072C427.592 57.832 428.936 64.488 428.936 72.04V137.512H412.808V76.648C412.808 66.792 411.016 59.496 407.432 54.76C403.976 50.024 398.664 47.656 391.496 47.656C383.304 47.656 376.712 50.152 371.72 55.144C366.856 60.136 364.424 67.368 364.424 76.84V137.512H348.296ZM516.797 137.512C506.941 137.512 499.581 135.208 494.717 130.6C489.853 125.992 487.421 118.952 487.421 109.48V11.944H503.549V109.48C503.549 114.216 504.637 117.736 506.813 120.04C508.989 122.216 512.317 123.304 516.797 123.304H544.061V137.512H516.797ZM453.821 49.96V35.752H544.061V49.96H453.821ZM578.546 137.512V1.19196H594.674V58.216L592.754 57.832C594.034 52.2 596.21 47.592 599.282 44.008C602.354 40.424 606.13 37.8 610.61 36.136C615.09 34.344 619.954 33.448 625.202 33.448C632.498 33.448 638.642 35.112 643.634 38.44C648.754 41.64 652.594 46.184 655.154 52.072C657.842 57.832 659.186 64.488 659.186 72.04V137.512H643.058V76.648C643.058 66.792 641.266 59.496 637.682 54.76C634.226 50.024 628.914 47.656 621.746 47.656C613.554 47.656 606.962 50.152 601.97 55.144C597.106 60.136 594.674 67.368 594.674 76.84V137.512H578.546ZM718.631 139.816C712.231 139.816 706.471 138.664 701.351 136.36C696.231 134.056 692.199 130.856 689.255 126.76C686.311 122.536 684.839 117.672 684.839 112.168C684.839 103.464 687.399 96.744 692.519 92.008C697.767 87.144 705.959 83.624 717.095 81.448L751.271 74.536C751.271 65.832 749.287 59.368 745.319 55.144C741.479 50.92 735.911 48.808 728.615 48.808C721.575 48.808 716.071 50.408 712.103 53.608C708.135 56.68 705.383 61.16 703.847 67.048L686.759 65.704C688.679 56.104 693.223 48.36 700.391 42.472C707.687 36.456 717.095 33.448 728.615 33.448C740.903 33.448 750.439 37.16 757.223 44.584C764.007 51.88 767.399 61.992 767.399 74.92V117.16C767.399 119.464 767.911 121.064 768.935 121.96C769.959 122.856 771.495 123.304 773.543 123.304H780.071V137.512C779.303 137.64 778.087 137.704 776.423 137.704C774.759 137.832 773.159 137.896 771.623 137.896C767.271 137.896 763.559 137.192 760.487 135.784C757.543 134.376 755.303 132.136 753.767 129.064C752.231 125.864 751.399 121.768 751.271 116.776H754.343C753.447 121.128 751.271 125.096 747.815 128.68C744.487 132.136 740.263 134.888 735.143 136.936C730.023 138.856 724.519 139.816 718.631 139.816ZM720.167 125.608C727.079 125.608 732.839 124.456 737.447 122.152C742.055 119.72 745.511 116.392 747.815 112.168C750.119 107.816 751.271 102.824 751.271 97.192V88.36L720.167 94.504C713.255 95.784 708.455 97.768 705.767 100.456C703.079 103.016 701.735 106.408 701.735 110.632C701.735 115.368 703.335 119.08 706.535 121.768C709.863 124.328 714.407 125.608 720.167 125.608ZM805.724 137.512V35.752H820.508L821.084 61.672L819.164 59.944C820.444 53.928 822.748 49 826.076 45.16C829.532 41.192 833.628 38.248 838.364 36.328C843.1 34.408 848.092 33.448 853.34 33.448C861.148 33.448 867.612 35.176 872.732 38.632C877.98 42.088 881.948 46.76 884.636 52.648C887.324 58.408 888.668 64.872 888.668 72.04V137.512H872.54V76.648C872.54 67.176 870.684 60.008 866.972 55.144C863.26 50.152 857.564 47.656 849.884 47.656C844.636 47.656 839.9 48.808 835.676 51.112C831.452 53.288 828.06 56.552 825.5 60.904C823.068 65.128 821.852 70.376 821.852 76.648V137.512H805.724ZM955.985 139.816C947.025 139.816 939.281 137.64 932.753 133.288C926.225 128.936 921.169 122.792 917.585 114.856C914.129 106.92 912.401 97.512 912.401 86.632C912.401 75.752 914.129 66.344 917.585 58.408C921.169 50.472 926.225 44.328 932.753 39.976C939.281 35.624 947.025 33.448 955.985 33.448C963.153 33.448 969.425 35.176 974.801 38.632C980.177 41.96 984.081 45.736 986.513 49.96V1.19196H1002.64V137.512H988.049L987.473 122.152C984.657 127.656 980.497 132.008 974.993 135.208C969.489 138.28 963.153 139.816 955.985 139.816ZM956.945 124.456C963.089 124.456 968.337 122.92 972.689 119.848C977.169 116.776 980.561 112.424 982.865 106.792C985.297 101.032 986.513 94.312 986.513 86.632C986.513 78.696 985.297 71.912 982.865 66.28C980.561 60.648 977.169 56.36 972.689 53.416C968.209 50.344 962.833 48.808 956.561 48.808C948.241 48.808 941.585 52.2 936.593 58.984C931.729 65.64 929.297 74.856 929.297 86.632C929.297 98.28 931.729 107.496 936.593 114.28C941.585 121.064 948.369 124.456 956.945 124.456Z" fill="white"/>
<path d="M27.4967 137.512H26.4967V138.512H27.4967V137.512ZM27.4967 35.752V34.752H26.4967V35.752H27.4967ZM40.9367 35.752L41.9349 35.6924L41.8788 34.752H40.9367V35.752ZM42.4727 61.48L42.2302 62.4501L43.5521 62.7806L43.4709 61.4204L42.4727 61.48ZM40.9367 61.096L39.9473 60.9505L39.8156 61.8465L40.6942 62.0661L40.9367 61.096ZM49.1927 41.896L48.5073 41.1678L48.5019 41.1729L48.4966 41.1781L49.1927 41.896ZM87.4007 35.752H88.4007V34.752H87.4007V35.752ZM87.4007 50.344V51.344H88.4007V50.344H87.4007ZM53.9927 53.416L54.4925 54.2822L54.5025 54.2762L53.9927 53.416ZM46.3127 62.056L47.2133 62.4907L47.2189 62.4788L46.3127 62.056ZM43.6247 137.512V138.512H44.6247V137.512H43.6247ZM1.0007 137.512H0.000703812V138.512H1.0007V137.512ZM1.0007 123.304V122.304H0.000703812V123.304H1.0007ZM75.8807 123.304H76.8807V122.304H75.8807V123.304ZM75.8807 137.512V138.512H76.8807V137.512H75.8807ZM1.0007 49.96H0.000703812V50.96H1.0007V49.96ZM1.0007 35.752V34.752H0.000703812V35.752H1.0007ZM36.3287 35.752H37.3287V34.752H36.3287V35.752ZM36.3287 49.96V50.96H37.3287V49.96H36.3287ZM27.4967 137.512H28.4967V35.752H27.4967H26.4967V137.512H27.4967ZM27.4967 35.752V36.752H40.9367V35.752V34.752H27.4967V35.752ZM40.9367 35.752L39.9385 35.8116L41.4745 61.5396L42.4727 61.48L43.4709 61.4204L41.9349 35.6924L40.9367 35.752ZM42.4727 61.48L42.7152 60.5098L41.1792 60.1258L40.9367 61.096L40.6942 62.0661L42.2302 62.4501L42.4727 61.48ZM40.9367 61.096L41.9261 61.2415C43.1892 52.6524 45.8842 46.4972 49.8889 42.6139L49.1927 41.896L48.4966 41.1781C44.0532 45.4868 41.2442 52.1316 39.9473 60.9505L40.9367 61.096ZM49.1927 41.896L49.8781 42.6242C54.0087 38.7365 59.5056 36.752 66.4727 36.752V35.752V34.752C59.1038 34.752 53.0807 36.8635 48.5073 41.1678L49.1927 41.896ZM66.4727 35.752V36.752H87.4007V35.752V34.752H66.4727V35.752ZM87.4007 35.752H86.4007V50.344H87.4007H88.4007V35.752H87.4007ZM87.4007 50.344V49.344H66.6647V50.344V51.344H87.4007V50.344ZM66.6647 50.344V49.344C61.5365 49.344 57.1266 50.3965 53.4829 52.5557L53.9927 53.416L54.5025 54.2762C57.7708 52.3395 61.8089 51.344 66.6647 51.344V50.344ZM53.9927 53.416L53.493 52.5498C49.969 54.5828 47.276 57.6271 45.4065 61.6331L46.3127 62.056L47.2189 62.4788C48.9334 58.8048 51.3604 56.0891 54.4924 54.2821L53.9927 53.416ZM46.3127 62.056L45.4122 61.6212C43.5353 65.509 42.6247 70.3416 42.6247 76.072H43.6247H44.6247C44.6247 70.5384 45.5061 66.0269 47.2133 62.4907L46.3127 62.056ZM43.6247 76.072H42.6247V137.512H43.6247H44.6247V76.072H43.6247ZM43.6247 137.512V136.512H27.4967V137.512V138.512H43.6247V137.512ZM1.0007 137.512H2.0007V123.304H1.0007H0.000703812V137.512H1.0007ZM1.0007 123.304V124.304H75.8807V123.304V122.304H1.0007V123.304ZM75.8807 123.304H74.8807V137.512H75.8807H76.8807V123.304H75.8807ZM75.8807 137.512V136.512H1.0007V137.512V138.512H75.8807V137.512ZM1.0007 49.96H2.0007V35.752H1.0007H0.000703812V49.96H1.0007ZM1.0007 35.752V36.752H36.3287V35.752V34.752H1.0007V35.752ZM36.3287 35.752H35.3287V49.96H36.3287H37.3287V35.752H36.3287ZM36.3287 49.96V48.96H1.0007V49.96V50.96H36.3287V49.96ZM155.102 137.512H154.102V138.512H155.102V137.512ZM155.102 35.752V34.752H154.102V35.752H155.102ZM171.23 35.752H172.23V34.752H171.23V35.752ZM171.23 137.512V138.512H172.23V137.512H171.23ZM114.206 137.512H113.206V138.512H114.206V137.512ZM114.206 123.304V122.304H113.206V123.304H114.206ZM206.366 123.304H207.366V122.304H206.366V123.304ZM206.366 137.512V138.512H207.366V137.512H206.366ZM116.126 49.96H115.126V50.96H116.126V49.96ZM116.126 35.752V34.752H115.126V35.752H116.126ZM171.23 35.752H172.23V34.752H171.23V35.752ZM171.23 49.96V50.96H172.23V49.96H171.23ZM153.566 19.816H152.566V20.816H153.566V19.816ZM153.566 0.999958V-4.19617e-05H152.566V0.999958H153.566ZM170.462 0.999958H171.462V-4.19617e-05H170.462V0.999958ZM170.462 19.816V20.816H171.462V19.816H170.462ZM155.102 137.512H156.102V35.752H155.102H154.102V137.512H155.102ZM155.102 35.752V36.752H171.23V35.752V34.752H155.102V35.752ZM171.23 35.752H170.23V137.512H171.23H172.23V35.752H171.23ZM171.23 137.512V136.512H155.102V137.512V138.512H171.23V137.512ZM114.206 137.512H115.206V123.304H114.206H113.206V137.512H114.206ZM114.206 123.304V124.304H206.366V123.304V122.304H114.206V123.304ZM206.366 123.304H205.366V137.512H206.366H207.366V123.304H206.366ZM206.366 137.512V136.512H114.206V137.512V138.512H206.366V137.512ZM116.126 49.96H117.126V35.752H116.126H115.126V49.96H116.126ZM116.126 35.752V36.752H171.23V35.752V34.752H116.126V35.752ZM171.23 35.752H170.23V49.96H171.23H172.23V35.752H171.23ZM171.23 49.96V48.96H116.126V49.96V50.96H171.23V49.96ZM153.566 19.816H154.566V0.999958H153.566H152.566V19.816H153.566ZM153.566 0.999958V1.99996H170.462V0.999958V-4.19617e-05H153.566V0.999958ZM170.462 0.999958H169.462V19.816H170.462H171.462V0.999958H170.462ZM170.462 19.816V18.816H153.566V19.816V20.816H170.462V19.816ZM251.219 164.968L250.837 165.892L250.837 165.892L251.219 164.968ZM236.435 154.6L237.183 153.937L237.183 153.937L236.435 154.6ZM228.371 139.048L228.303 138.05L227.123 138.131L227.398 139.281L228.371 139.048ZM245.267 137.896L246.218 137.587L245.977 136.845L245.199 136.898L245.267 137.896ZM253.331 149.032L253.909 148.216L253.904 148.213L253.331 149.032ZM292.115 147.688L291.518 146.885L291.508 146.893L292.115 147.688ZM299.603 114.472H300.603L298.692 114.06L299.603 114.472ZM287.891 127.336L287.379 126.477L287.379 126.477L287.891 127.336ZM246.803 125.8L246.267 126.644L246.274 126.649L246.803 125.8ZM231.059 108.328L230.164 108.775L230.17 108.787L231.059 108.328ZM231.059 57.256L231.95 57.7094L231.953 57.7032L231.059 57.256ZM246.419 39.784L245.883 38.9396L245.875 38.9444L246.419 39.784ZM288.275 38.44L287.766 39.3009L287.774 39.3058L288.275 38.44ZM300.371 51.88L299.445 52.2586L301.371 51.88H300.371ZM300.371 35.752V34.752H299.371V35.752H300.371ZM315.731 35.752H316.731V34.752H315.731V35.752ZM310.355 150.952L309.511 150.415L309.506 150.424L310.355 150.952ZM294.995 164.008L294.59 163.093L294.583 163.097L294.576 163.1L294.995 164.008ZM291.539 107.752L292.292 108.409L292.299 108.401L291.539 107.752ZM299.603 82.792L298.603 82.7738L298.603 82.7798L299.603 82.792ZM296.147 64.744L295.235 65.1543L295.241 65.1682L295.248 65.1819L296.147 64.744ZM285.971 53.032L285.427 53.8715L285.442 53.8807L285.456 53.8895L285.971 53.032ZM249.683 58.024L248.907 57.3934L248.905 57.3952L249.683 58.024ZM249.875 107.752L249.099 108.383L249.106 108.391L249.113 108.4L249.875 107.752ZM270.995 168.616V167.616C263.811 167.616 257.351 166.419 251.6 164.044L251.219 164.968L250.837 165.892C256.862 168.381 263.587 169.616 270.995 169.616V168.616ZM251.219 164.968L251.6 164.044C245.844 161.666 241.044 158.296 237.183 153.937L236.435 154.6L235.686 155.263C239.761 159.864 244.818 163.406 250.837 165.892L251.219 164.968ZM236.435 154.6L237.183 153.937C233.325 149.581 230.714 144.546 229.343 138.815L228.371 139.048L227.398 139.281C228.844 145.326 231.608 150.659 235.686 155.263L236.435 154.6ZM228.371 139.048L228.439 140.046L245.335 138.894L245.267 137.896L245.199 136.898L228.303 138.05L228.371 139.048ZM245.267 137.896L244.315 138.204C245.914 143.134 248.728 147.031 252.757 149.851L253.331 149.032L253.904 148.213C250.254 145.657 247.691 142.13 246.218 137.587L245.267 137.896ZM253.331 149.032L252.752 149.847C256.964 152.836 263.095 154.256 270.995 154.256V153.256V152.256C263.279 152.256 257.634 150.86 253.909 148.216L253.331 149.032ZM270.995 153.256V154.256C280.324 154.256 287.615 152.38 292.721 148.483L292.115 147.688L291.508 146.893C286.887 150.42 280.097 152.256 270.995 152.256V153.256ZM292.115 147.688L292.711 148.49C298.008 144.552 300.603 138.655 300.603 130.984H299.603H298.603C298.603 138.161 296.206 143.4 291.518 146.886L292.115 147.688ZM299.603 130.984H300.603V114.472H299.603H298.603V130.984H299.603ZM299.603 114.472L298.692 114.06C296.349 119.238 292.591 123.375 287.379 126.477L287.891 127.336L288.402 128.195C293.943 124.897 297.992 120.458 300.514 114.884L299.603 114.472ZM287.891 127.336L287.379 126.477C282.168 129.579 276.331 131.136 269.843 131.136V132.136V133.136C276.667 133.136 282.862 131.493 288.402 128.195L287.891 127.336ZM269.843 132.136V131.136C261.439 131.136 253.945 129.069 247.331 124.951L246.803 125.8L246.274 126.649C253.228 130.979 261.094 133.136 269.843 133.136V132.136ZM246.803 125.8L247.339 124.956C240.841 120.832 235.711 115.145 231.947 107.869L231.059 108.328L230.17 108.787C234.087 116.359 239.452 122.32 246.267 126.644L246.803 125.8ZM231.059 108.328L231.953 107.881C228.321 100.616 226.491 92.261 226.491 82.792H225.491H224.491C224.491 92.5229 226.373 101.192 230.164 108.775L231.059 108.328ZM225.491 82.792H226.491C226.491 73.1921 228.322 64.8408 231.95 57.7094L231.059 57.256L230.167 56.8025C226.372 64.2631 224.491 72.9359 224.491 82.792H225.491ZM231.059 57.256L231.953 57.7032C235.591 50.4278 240.594 44.7439 246.962 40.6235L246.419 39.784L245.875 38.9444C239.187 43.272 233.951 49.2361 230.164 56.8087L231.059 57.256ZM246.419 39.784L246.955 40.6283C253.439 36.5133 260.802 34.448 269.075 34.448V33.448V32.448C260.451 32.448 252.711 34.6066 245.883 38.9396L246.419 39.784ZM269.075 33.448V34.448C276.081 34.448 282.303 36.0725 287.766 39.3009L288.275 38.44L288.783 37.579C282.983 34.1514 276.404 32.448 269.075 32.448V33.448ZM288.275 38.44L287.774 39.3058C293.362 42.534 297.233 46.851 299.445 52.2586L300.371 51.88L301.296 51.5013C298.9 45.6449 294.708 41.002 288.775 37.5741L288.275 38.44ZM300.371 51.88H301.371V35.752H300.371H299.371V51.88H300.371ZM300.371 35.752V36.752H315.731V35.752V34.752H300.371V35.752ZM315.731 35.752H314.731V130.6H315.731H316.731V35.752H315.731ZM315.731 130.6H314.731C314.731 138.382 312.975 144.972 309.511 150.415L310.355 150.952L311.198 151.489C314.902 145.668 316.731 138.69 316.731 130.6H315.731ZM310.355 150.952L309.506 150.424C306.036 156.001 301.077 160.224 294.59 163.093L294.995 164.008L295.399 164.923C302.225 161.904 307.506 157.423 311.204 151.48L310.355 150.952ZM294.995 164.008L294.576 163.1C288.082 166.097 280.232 167.616 270.995 167.616V168.616V169.616C280.445 169.616 288.596 168.063 295.414 164.916L294.995 164.008ZM270.611 116.776V117.776C279.574 117.776 286.836 114.664 292.292 108.409L291.539 107.752L290.785 107.095C285.746 112.872 279.055 115.776 270.611 115.776V116.776ZM291.539 107.752L292.299 108.401C297.74 102.032 300.473 93.463 300.603 82.8042L299.603 82.792L298.603 82.7798C298.477 93.1129 295.834 101.184 290.778 107.102L291.539 107.752ZM299.603 82.792L300.603 82.8101C300.733 75.6535 299.563 69.4729 297.046 64.306L296.147 64.744L295.248 65.1819C297.595 69.9991 298.729 75.8505 298.603 82.7738L299.603 82.792ZM296.147 64.744L297.059 64.3336C294.677 59.0421 291.153 54.9754 286.485 52.1745L285.971 53.032L285.456 53.8895C289.748 56.4645 293.008 60.2058 295.235 65.1543L296.147 64.744ZM285.971 53.032L286.514 52.1924C281.979 49.2579 276.665 47.808 270.611 47.808V48.808V49.808C276.333 49.808 281.259 51.174 285.427 53.8715L285.971 53.032ZM270.611 48.808V47.808C261.394 47.808 254.115 50.983 248.907 57.3934L249.683 58.024L250.459 58.6545C255.234 52.7769 261.907 49.808 270.611 49.808V48.808ZM249.683 58.024L248.905 57.3952C243.853 63.6435 241.387 72.1484 241.387 82.792H242.387H243.387C243.387 72.4435 245.784 64.4364 250.46 58.6527L249.683 58.024ZM242.387 82.792H241.387C241.387 93.4424 243.921 102.01 249.099 108.383L249.875 107.752L250.651 107.121C245.845 101.206 243.387 93.1335 243.387 82.792H242.387ZM249.875 107.752L249.113 108.4C254.444 114.664 261.647 117.776 270.611 117.776V116.776V115.776C262.166 115.776 255.545 112.872 250.636 107.104L249.875 107.752ZM348.296 137.512H347.296V138.512H348.296V137.512ZM348.296 1.19196V0.191956H347.296V1.19196H348.296ZM364.424 1.19196H365.424V0.191956H364.424V1.19196ZM364.424 58.216L364.228 59.1965L365.424 59.4358V58.216H364.424ZM362.504 57.832L361.529 57.6103L361.301 58.6112L362.308 58.8125L362.504 57.832ZM369.032 44.008L369.791 44.6588L369.791 44.6588L369.032 44.008ZM380.36 36.136L380.708 37.0734L380.72 37.0691L380.731 37.0644L380.36 36.136ZM413.384 38.44L412.829 39.272L412.841 39.2802L412.854 39.288L413.384 38.44ZM424.904 52.072L423.987 52.4707L423.992 52.4828L423.998 52.4948L424.904 52.072ZM428.936 137.512V138.512H429.936V137.512H428.936ZM412.808 137.512H411.808V138.512H412.808V137.512ZM407.432 54.76L406.624 55.3494L406.629 55.3565L406.634 55.3634L407.432 54.76ZM371.72 55.144L371.013 54.4368L371.003 54.4461L371.72 55.144ZM364.424 137.512V138.512H365.424V137.512H364.424ZM348.296 137.512H349.296V1.19196H348.296H347.296V137.512H348.296ZM348.296 1.19196V2.19196H364.424V1.19196V0.191956H348.296V1.19196ZM364.424 1.19196H363.424V58.216H364.424H365.424V1.19196H364.424ZM364.424 58.216L364.62 57.2354L362.7 56.8514L362.504 57.832L362.308 58.8125L364.228 59.1965L364.424 58.216ZM362.504 57.832L363.479 58.0536C364.731 52.5451 366.846 48.0947 369.791 44.6588L369.032 44.008L368.272 43.3572C365.074 47.0892 362.837 51.8548 361.529 57.6103L362.504 57.832ZM369.032 44.008L369.791 44.6588C372.751 41.2053 376.385 38.679 380.708 37.0734L380.36 36.136L380.012 35.1985C375.374 36.9209 371.456 39.6426 368.272 43.3572L369.032 44.008ZM380.36 36.136L380.731 37.0644C385.083 35.3237 389.82 34.448 394.952 34.448V33.448V32.448C389.588 32.448 384.596 33.3642 379.988 35.2075L380.36 36.136ZM394.952 33.448V34.448C402.093 34.448 408.034 36.0752 412.829 39.272L413.384 38.44L413.938 37.6079C408.75 34.1487 402.402 32.448 394.952 32.448V33.448ZM413.384 38.44L412.854 39.288C417.791 42.3738 421.502 46.7557 423.987 52.4707L424.904 52.072L425.821 51.6732C423.186 45.6122 419.216 40.9061 413.914 37.592L413.384 38.44ZM424.904 52.072L423.998 52.4948C426.613 58.0998 427.936 64.6069 427.936 72.04H428.936H429.936C429.936 64.369 428.57 57.5641 425.81 51.6491L424.904 52.072ZM428.936 72.04H427.936V137.512H428.936H429.936V72.04H428.936ZM428.936 137.512V136.512H412.808V137.512V138.512H428.936V137.512ZM412.808 137.512H413.808V76.648H412.808H411.808V137.512H412.808ZM412.808 76.648H413.808C413.808 66.7052 412.006 59.1478 408.229 54.1565L407.432 54.76L406.634 55.3634C410.025 59.8442 411.808 66.8787 411.808 76.648H412.808ZM407.432 54.76L408.239 54.1705C404.553 49.1182 398.903 46.656 391.496 46.656V47.656V48.656C398.424 48.656 403.399 50.9298 406.624 55.3494L407.432 54.76ZM391.496 47.656V46.656C383.084 46.656 376.222 49.2271 371.013 54.4369L371.72 55.144L372.427 55.8511C377.201 51.0768 383.523 48.656 391.496 48.656V47.656ZM371.72 55.144L371.003 54.4461C365.9 59.6837 363.424 67.2029 363.424 76.84H364.424H365.424C365.424 67.533 367.811 60.5883 372.436 55.8418L371.72 55.144ZM364.424 76.84H363.424V137.512H364.424H365.424V76.84H364.424ZM364.424 137.512V136.512H348.296V137.512V138.512H364.424V137.512ZM494.717 130.6L494.029 131.326L494.029 131.326L494.717 130.6ZM487.421 11.944V10.944H486.421V11.944H487.421ZM503.549 11.944H504.549V10.944H503.549V11.944ZM506.813 120.04L506.086 120.727L506.095 120.737L506.106 120.747L506.813 120.04ZM544.061 123.304H545.061V122.304H544.061V123.304ZM544.061 137.512V138.512H545.061V137.512H544.061ZM453.821 49.96H452.821V50.96H453.821V49.96ZM453.821 35.752V34.752H452.821V35.752H453.821ZM544.061 35.752H545.061V34.752H544.061V35.752ZM544.061 49.96V50.96H545.061V49.96H544.061ZM516.797 137.512V136.512C507.078 136.512 500.011 134.238 495.404 129.874L494.717 130.6L494.029 131.326C499.15 136.178 506.804 138.512 516.797 138.512V137.512ZM494.717 130.6L495.404 129.874C490.811 125.522 488.421 118.793 488.421 109.48H487.421H486.421C486.421 119.111 488.895 126.462 494.029 131.326L494.717 130.6ZM487.421 109.48H488.421V11.944H487.421H486.421V109.48H487.421ZM487.421 11.944V12.944H503.549V11.944V10.944H487.421V11.944ZM503.549 11.944H502.549V109.48H503.549H504.549V11.944H503.549ZM503.549 109.48H502.549C502.549 114.347 503.665 118.163 506.086 120.727L506.813 120.04L507.54 119.353C505.609 117.309 504.549 114.085 504.549 109.48H503.549ZM506.813 120.04L506.106 120.747C508.54 123.182 512.172 124.304 516.797 124.304V123.304V122.304C512.461 122.304 509.437 121.25 507.52 119.333L506.813 120.04ZM516.797 123.304V124.304H544.061V123.304V122.304H516.797V123.304ZM544.061 123.304H543.061V137.512H544.061H545.061V123.304H544.061ZM544.061 137.512V136.512H516.797V137.512V138.512H544.061V137.512ZM453.821 49.96H454.821V35.752H453.821H452.821V49.96H453.821ZM453.821 35.752V36.752H544.061V35.752V34.752H453.821V35.752ZM544.061 35.752H543.061V49.96H544.061H545.061V35.752H544.061ZM544.061 49.96V48.96H453.821V49.96V50.96H544.061V49.96ZM578.546 137.512H577.546V138.512H578.546V137.512ZM578.546 1.19196V0.191956H577.546V1.19196H578.546ZM594.674 1.19196H595.674V0.191956H594.674V1.19196ZM594.674 58.216L594.478 59.1965L595.674 59.4358V58.216H594.674ZM592.754 57.832L591.779 57.6103L591.551 58.6112L592.558 58.8125L592.754 57.832ZM599.282 44.008L600.041 44.6588L600.041 44.6588L599.282 44.008ZM610.61 36.136L610.958 37.0734L610.97 37.0691L610.981 37.0644L610.61 36.136ZM643.634 38.44L643.079 39.272L643.091 39.2802L643.104 39.288L643.634 38.44ZM655.154 52.072L654.237 52.4707L654.242 52.4828L654.248 52.4948L655.154 52.072ZM659.186 137.512V138.512H660.186V137.512H659.186ZM643.058 137.512H642.058V138.512H643.058V137.512ZM637.682 54.76L636.874 55.3494L636.879 55.3565L636.884 55.3634L637.682 54.76ZM601.97 55.144L601.263 54.4368L601.253 54.4461L601.97 55.144ZM594.674 137.512V138.512H595.674V137.512H594.674ZM578.546 137.512H579.546V1.19196H578.546H577.546V137.512H578.546ZM578.546 1.19196V2.19196H594.674V1.19196V0.191956H578.546V1.19196ZM594.674 1.19196H593.674V58.216H594.674H595.674V1.19196H594.674ZM594.674 58.216L594.87 57.2354L592.95 56.8514L592.754 57.832L592.558 58.8125L594.478 59.1965L594.674 58.216ZM592.754 57.832L593.729 58.0536C594.981 52.5451 597.096 48.0947 600.041 44.6588L599.282 44.008L598.522 43.3572C595.324 47.0892 593.087 51.8548 591.779 57.6103L592.754 57.832ZM599.282 44.008L600.041 44.6588C603.001 41.2053 606.635 38.679 610.958 37.0734L610.61 36.136L610.262 35.1985C605.624 36.9209 601.706 39.6426 598.522 43.3572L599.282 44.008ZM610.61 36.136L610.981 37.0644C615.333 35.3237 620.07 34.448 625.202 34.448V33.448V32.448C619.838 32.448 614.846 33.3642 610.238 35.2075L610.61 36.136ZM625.202 33.448V34.448C632.343 34.448 638.284 36.0752 643.079 39.272L643.634 38.44L644.188 37.6079C639 34.1487 632.652 32.448 625.202 32.448V33.448ZM643.634 38.44L643.104 39.288C648.041 42.3738 651.752 46.7557 654.237 52.4707L655.154 52.072L656.071 51.6732C653.436 45.6122 649.466 40.9061 644.164 37.592L643.634 38.44ZM655.154 52.072L654.248 52.4948C656.863 58.0998 658.186 64.6069 658.186 72.04H659.186H660.186C660.186 64.369 658.82 57.5641 656.06 51.6491L655.154 52.072ZM659.186 72.04H658.186V137.512H659.186H660.186V72.04H659.186ZM659.186 137.512V136.512H643.058V137.512V138.512H659.186V137.512ZM643.058 137.512H644.058V76.648H643.058H642.058V137.512H643.058ZM643.058 76.648H644.058C644.058 66.7052 642.256 59.1478 638.479 54.1565L637.682 54.76L636.884 55.3634C640.275 59.8442 642.058 66.8787 642.058 76.648H643.058ZM637.682 54.76L638.489 54.1705C634.803 49.1182 629.153 46.656 621.746 46.656V47.656V48.656C628.674 48.656 633.649 50.9298 636.874 55.3494L637.682 54.76ZM621.746 47.656V46.656C613.334 46.656 606.472 49.2271 601.263 54.4369L601.97 55.144L602.677 55.8511C607.451 51.0768 613.773 48.656 621.746 48.656V47.656ZM601.97 55.144L601.253 54.4461C596.15 59.6837 593.674 67.2029 593.674 76.84H594.674H595.674C595.674 67.533 598.061 60.5883 602.686 55.8418L601.97 55.144ZM594.674 76.84H593.674V137.512H594.674H595.674V76.84H594.674ZM594.674 137.512V136.512H578.546V137.512V138.512H594.674V137.512ZM701.351 136.36L700.94 137.272L700.94 137.272L701.351 136.36ZM689.255 126.76L688.434 127.332L688.438 127.338L688.443 127.344L689.255 126.76ZM692.519 92.008L693.198 92.7421L693.198 92.7414L692.519 92.008ZM717.095 81.448L717.286 82.4294L717.293 82.4281L717.095 81.448ZM751.271 74.536L751.469 75.5161L752.271 75.354V74.536H751.271ZM745.319 55.144L744.579 55.8166L744.584 55.8227L744.59 55.8286L745.319 55.144ZM712.103 53.608L712.715 54.3987L712.723 54.3926L712.73 54.3864L712.103 53.608ZM703.847 67.048L703.768 68.0449L704.603 68.1105L704.814 67.3004L703.847 67.048ZM686.759 65.704L685.778 65.5078L685.557 66.6125L686.68 66.7009L686.759 65.704ZM700.391 42.472L701.025 43.2447L701.027 43.2435L700.391 42.472ZM757.223 44.584L756.484 45.2586L756.49 45.2649L757.223 44.584ZM768.935 121.96L768.276 122.713L768.276 122.713L768.935 121.96ZM780.071 123.304H781.071V122.304H780.071V123.304ZM780.071 137.512L780.235 138.498L781.071 138.359V137.512H780.071ZM776.423 137.704V136.704H776.384L776.346 136.707L776.423 137.704ZM760.487 135.784L760.055 136.686L760.063 136.69L760.07 136.693L760.487 135.784ZM753.767 129.064L752.865 129.497L752.869 129.504L752.872 129.511L753.767 129.064ZM751.271 116.776V115.776H750.245L750.271 116.802L751.271 116.776ZM754.343 116.776L755.322 116.978L755.57 115.776H754.343V116.776ZM747.815 128.68L747.095 127.986L747.094 127.986L747.815 128.68ZM735.143 136.936L735.494 137.872L735.504 137.868L735.514 137.864L735.143 136.936ZM737.447 122.152L737.894 123.046L737.904 123.041L737.913 123.036L737.447 122.152ZM747.815 112.168L748.693 112.647L748.698 112.636L747.815 112.168ZM751.271 88.36H752.271V87.1431L751.077 87.3789L751.271 88.36ZM720.167 94.504L720.349 95.4873L720.36 95.485L720.167 94.504ZM705.767 100.456L706.456 101.18L706.465 101.172L706.474 101.163L705.767 100.456ZM706.535 121.768L705.892 122.534L705.908 122.547L705.925 122.561L706.535 121.768ZM718.631 139.816V138.816C712.352 138.816 706.735 137.686 701.761 135.448L701.351 136.36L700.94 137.272C706.206 139.642 712.109 140.816 718.631 140.816V139.816ZM701.351 136.36L701.761 135.448C696.783 133.208 692.897 130.114 690.067 126.176L689.255 126.76L688.443 127.344C691.501 131.598 695.678 134.904 700.94 137.272L701.351 136.36ZM689.255 126.76L690.075 126.188C687.256 122.144 685.839 117.482 685.839 112.168H684.839H683.839C683.839 117.862 685.365 122.928 688.434 127.332L689.255 126.76ZM684.839 112.168H685.839C685.839 103.669 688.331 97.2438 693.198 92.7421L692.519 92.008L691.84 91.2739C686.466 96.2441 683.839 103.259 683.839 112.168H684.839ZM692.519 92.008L693.198 92.7414C698.252 88.0576 706.236 84.5888 717.286 82.4294L717.095 81.448L716.903 80.4665C705.682 82.6592 697.281 86.2303 691.839 91.2745L692.519 92.008ZM717.095 81.448L717.293 82.4281L751.469 75.5161L751.271 74.536L751.072 73.5558L716.896 80.4678L717.095 81.448ZM751.271 74.536H752.271C752.271 65.7025 750.26 58.9432 746.048 54.4593L745.319 55.144L744.59 55.8286C748.314 59.7927 750.271 65.9614 750.271 74.536H751.271ZM745.319 55.144L746.059 54.4713C741.979 49.9842 736.109 47.808 728.615 47.808V48.808V49.808C735.712 49.808 740.978 51.8557 744.579 55.8166L745.319 55.144ZM728.615 48.808V47.808C721.432 47.808 715.678 49.4401 711.475 52.8295L712.103 53.608L712.73 54.3864C716.464 51.3758 721.717 49.808 728.615 49.808V48.808ZM712.103 53.608L711.491 52.8172C707.313 56.0513 704.459 60.7405 702.879 66.7955L703.847 67.048L704.814 67.3004C706.307 61.5794 708.956 57.3086 712.715 54.3987L712.103 53.608ZM703.847 67.048L703.925 66.051L686.837 64.707L686.759 65.704L686.68 66.7009L703.768 68.0449L703.847 67.048ZM686.759 65.704L687.739 65.9001C689.617 56.5129 694.046 48.9776 701.025 43.2447L700.391 42.472L699.756 41.6992C692.399 47.7423 687.741 55.695 685.778 65.5078L686.759 65.704ZM700.391 42.472L701.027 43.2435C708.107 37.4054 717.274 34.448 728.615 34.448V33.448V32.448C716.915 32.448 707.266 35.5065 699.755 41.7004L700.391 42.472ZM728.615 33.448V34.448C740.689 34.448 749.931 38.0868 756.484 45.2585L757.223 44.584L757.961 43.9094C750.946 36.2331 741.116 32.448 728.615 32.448V33.448ZM757.223 44.584L756.49 45.2649C763.056 52.326 766.399 62.167 766.399 74.92H767.399H768.399C768.399 61.8169 764.957 51.4339 757.955 43.903L757.223 44.584ZM767.399 74.92H766.399V117.16H767.399H768.399V74.92H767.399ZM767.399 117.16H766.399C766.399 119.561 766.924 121.529 768.276 122.713L768.935 121.96L769.593 121.207C768.898 120.599 768.399 119.367 768.399 117.16H767.399ZM768.935 121.96L768.276 122.713C769.555 123.832 771.371 124.304 773.543 124.304V123.304V122.304C771.618 122.304 770.362 121.88 769.593 121.207L768.935 121.96ZM773.543 123.304V124.304H780.071V123.304V122.304H773.543V123.304ZM780.071 123.304H779.071V137.512H780.071H781.071V123.304H780.071ZM780.071 137.512L779.906 136.526C779.225 136.639 778.079 136.704 776.423 136.704V137.704V138.704C778.094 138.704 779.38 138.641 780.235 138.498L780.071 137.512ZM776.423 137.704L776.346 136.707C774.705 136.833 773.131 136.896 771.623 136.896V137.896V138.896C773.186 138.896 774.812 138.831 776.499 138.701L776.423 137.704ZM771.623 137.896V136.896C767.375 136.896 763.813 136.208 760.903 134.875L760.487 135.784L760.07 136.693C763.305 138.176 767.167 138.896 771.623 138.896V137.896ZM760.487 135.784L760.918 134.882C758.186 133.575 756.103 131.501 754.661 128.617L753.767 129.064L752.872 129.511C754.502 132.771 756.9 135.177 760.055 136.686L760.487 135.784ZM753.767 129.064L754.668 128.631C753.213 125.599 752.396 121.655 752.27 116.75L751.271 116.776L750.271 116.802C750.401 121.881 751.249 126.129 752.865 129.497L753.767 129.064ZM751.271 116.776V117.776H754.343V116.776V115.776H751.271V116.776ZM754.343 116.776L753.363 116.574C752.51 120.719 750.436 124.521 747.095 127.986L747.815 128.68L748.535 129.374C752.106 125.671 754.384 121.537 755.322 116.978L754.343 116.776ZM747.815 128.68L747.094 127.986C743.878 131.326 739.779 134.004 734.771 136.007L735.143 136.936L735.514 137.864C740.746 135.772 745.095 132.946 748.535 129.374L747.815 128.68ZM735.143 136.936L734.792 136C729.792 137.874 724.408 138.816 718.631 138.816V139.816V140.816C724.629 140.816 730.253 139.838 735.494 137.872L735.143 136.936ZM720.167 125.608V126.608C727.183 126.608 733.108 125.439 737.894 123.046L737.447 122.152L736.999 121.258C732.569 123.473 726.974 124.608 720.167 124.608V125.608ZM737.447 122.152L737.913 123.036C742.68 120.521 746.287 117.058 748.693 112.647L747.815 112.168L746.937 111.689C744.735 115.726 741.429 118.919 736.98 121.268L737.447 122.152ZM747.815 112.168L748.698 112.636C751.089 108.12 752.271 102.963 752.271 97.192H751.271H750.271C750.271 102.684 749.148 107.512 746.931 111.7L747.815 112.168ZM751.271 97.192H752.271V88.36H751.271H750.271V97.192H751.271ZM751.271 88.36L751.077 87.3789L719.973 93.5229L720.167 94.504L720.36 95.485L751.464 89.341L751.271 88.36ZM720.167 94.504L719.985 93.5207C713.019 94.8106 707.968 96.8403 705.06 99.7489L705.767 100.456L706.474 101.163C708.941 98.6956 713.49 96.7573 720.349 95.4872L720.167 94.504ZM705.767 100.456L705.077 99.7318C702.163 102.507 700.735 106.176 700.735 110.632H701.735H702.735C702.735 106.64 703.995 103.525 706.456 101.18L705.767 100.456ZM701.735 110.632H700.735C700.735 115.619 702.434 119.629 705.892 122.534L706.535 121.768L707.178 121.002C704.236 118.531 702.735 115.117 702.735 110.632H701.735ZM706.535 121.768L705.925 122.561C709.483 125.297 714.267 126.608 720.167 126.608V125.608V124.608C714.546 124.608 710.243 123.359 707.144 120.975L706.535 121.768ZM805.724 137.512H804.724V138.512H805.724V137.512ZM805.724 35.752V34.752H804.724V35.752H805.724ZM820.508 35.752L821.507 35.7297L821.486 34.752H820.508V35.752ZM821.084 61.672L820.415 62.4153L822.135 63.9634L822.083 61.6497L821.084 61.672ZM819.164 59.944L818.186 59.7359L818.065 60.3008L818.495 60.6873L819.164 59.944ZM826.076 45.16L825.322 44.5032L825.32 44.505L826.076 45.16ZM838.364 36.328L838.739 37.2547L838.739 37.2547L838.364 36.328ZM872.732 38.632L872.172 39.4609L872.182 39.4671L872.732 38.632ZM884.636 52.648L883.726 53.0633L883.73 53.0708L884.636 52.648ZM888.668 137.512V138.512H889.668V137.512H888.668ZM872.54 137.512H871.54V138.512H872.54V137.512ZM866.972 55.144L866.169 55.7407L866.177 55.7506L866.972 55.144ZM835.676 51.112L836.134 52.0009L836.144 51.9955L836.155 51.9899L835.676 51.112ZM825.5 60.904L824.638 60.3969L824.633 60.405L825.5 60.904ZM821.852 137.512V138.512H822.852V137.512H821.852ZM805.724 137.512H806.724V35.752H805.724H804.724V137.512H805.724ZM805.724 35.752V36.752H820.508V35.752V34.752H805.724V35.752ZM820.508 35.752L819.508 35.7742L820.084 61.6942L821.084 61.672L822.083 61.6497L821.507 35.7297L820.508 35.752ZM821.084 61.672L821.753 60.9287L819.833 59.2007L819.164 59.944L818.495 60.6873L820.415 62.4153L821.084 61.672ZM819.164 59.944L820.142 60.1521C821.394 54.2668 823.635 49.5028 826.831 45.8149L826.076 45.16L825.32 44.505C821.86 48.4971 819.493 53.5891 818.186 59.7359L819.164 59.944ZM826.076 45.16L826.83 45.8167C830.186 41.9636 834.153 39.1139 838.739 37.2547L838.364 36.328L837.988 35.4012C833.102 37.382 828.878 40.4204 825.322 44.5032L826.076 45.16ZM838.364 36.328L838.739 37.2547C843.353 35.3844 848.217 34.448 853.34 34.448V33.448V32.448C847.966 32.448 842.847 33.4315 837.988 35.4012L838.364 36.328ZM853.34 33.448V34.448C861.001 34.448 867.256 36.1425 872.172 39.4608L872.732 38.632L873.291 37.8031C867.967 34.2094 861.294 32.448 853.34 32.448V33.448ZM872.732 38.632L872.182 39.4671C877.268 42.8165 881.114 47.3408 883.726 53.0632L884.636 52.648L885.545 52.2327C882.782 46.1791 878.692 41.3594 873.282 37.7968L872.732 38.632ZM884.636 52.648L883.73 53.0708C886.348 58.6824 887.668 64.9994 887.668 72.04H888.668H889.668C889.668 64.7446 888.299 58.1335 885.542 52.2251L884.636 52.648ZM888.668 72.04H887.668V137.512H888.668H889.668V72.04H888.668ZM888.668 137.512V136.512H872.54V137.512V138.512H888.668V137.512ZM872.54 137.512H873.54V76.648H872.54H871.54V137.512H872.54ZM872.54 76.648H873.54C873.54 67.0697 871.667 59.648 867.767 54.5373L866.972 55.144L866.177 55.7506C869.7 60.3679 871.54 67.2822 871.54 76.648H872.54ZM866.972 55.144L867.774 54.5473C863.829 49.2417 857.797 46.656 849.884 46.656V47.656V48.656C857.33 48.656 862.69 51.0622 866.169 55.7407L866.972 55.144ZM849.884 47.656V46.656C844.484 46.656 839.581 47.8428 835.197 50.2341L835.676 51.112L836.155 51.9899C840.219 49.7731 844.787 48.656 849.884 48.656V47.656ZM835.676 51.112L835.218 50.223C830.815 52.4911 827.287 55.8927 824.638 60.3969L825.5 60.904L826.362 61.411C828.832 57.2113 832.088 54.0849 836.134 52.0009L835.676 51.112ZM825.5 60.904L824.633 60.405C822.092 64.8183 820.852 70.25 820.852 76.648H821.852H822.852C822.852 70.5019 824.043 65.4376 826.366 61.4029L825.5 60.904ZM821.852 76.648H820.852V137.512H821.852H822.852V76.648H821.852ZM821.852 137.512V136.512H805.724V137.512V138.512H821.852V137.512ZM932.753 133.288L933.307 132.456L933.307 132.456L932.753 133.288ZM917.585 114.856L916.668 115.255L916.673 115.268L917.585 114.856ZM917.585 58.408L916.673 57.9963L916.668 58.0087L917.585 58.408ZM932.753 39.976L933.307 40.808L933.307 40.808L932.753 39.976ZM974.801 38.632L974.26 39.4731L974.267 39.4777L974.274 39.4822L974.801 38.632ZM986.513 49.96L985.646 50.4589L987.513 53.7009V49.96H986.513ZM986.513 1.19196V0.191956H985.513V1.19196H986.513ZM1002.64 1.19196H1003.64V0.191956H1002.64V1.19196ZM1002.64 137.512V138.512H1003.64V137.512H1002.64ZM988.049 137.512L987.049 137.549L987.086 138.512H988.049V137.512ZM987.473 122.152L988.472 122.114L988.328 118.284L986.582 121.696L987.473 122.152ZM974.993 135.208L975.48 136.081L975.488 136.077L975.495 136.072L974.993 135.208ZM972.689 119.848L972.123 119.023L972.112 119.031L972.689 119.848ZM982.865 106.792L981.943 106.403L981.939 106.413L982.865 106.792ZM982.865 66.28L981.939 66.6586L981.943 66.6675L981.947 66.6764L982.865 66.28ZM972.689 53.416L972.123 54.2407L972.131 54.2463L972.14 54.2517L972.689 53.416ZM936.593 58.984L935.787 58.3913L935.785 58.3939L936.593 58.984ZM936.593 114.28L935.78 114.863L935.787 114.873L936.593 114.28ZM955.985 139.816V138.816C947.193 138.816 939.649 136.683 933.307 132.456L932.753 133.288L932.198 134.12C938.913 138.597 946.856 140.816 955.985 140.816V139.816ZM932.753 133.288L933.307 132.456C926.952 128.219 922.012 122.229 918.496 114.444L917.585 114.856L916.673 115.268C920.326 123.355 925.497 129.653 932.198 134.12L932.753 133.288ZM917.585 114.856L918.502 114.457C915.113 106.675 913.401 97.4087 913.401 86.632H912.401H911.401C911.401 97.6152 913.145 107.165 916.668 115.255L917.585 114.856ZM912.401 86.632H913.401C913.401 75.8552 915.113 66.5893 918.502 58.8072L917.585 58.408L916.668 58.0087C913.145 66.0986 911.401 75.6487 911.401 86.632H912.401ZM917.585 58.408L918.496 58.8195C922.012 51.035 926.952 45.0449 933.307 40.808L932.753 39.976L932.198 39.1439C925.497 43.6111 920.326 49.9089 916.673 57.9964L917.585 58.408ZM932.753 39.976L933.307 40.808C939.649 36.5805 947.193 34.448 955.985 34.448V33.448V32.448C946.856 32.448 938.913 34.6674 932.198 39.1439L932.753 39.976ZM955.985 33.448V34.448C962.985 34.448 969.064 36.1331 974.26 39.4731L974.801 38.632L975.341 37.7908C969.785 34.2188 963.32 32.448 955.985 32.448V33.448ZM974.801 38.632L974.274 39.4822C979.55 42.7482 983.318 46.4147 985.646 50.4589L986.513 49.96L987.379 49.461C984.844 45.0572 980.803 41.1717 975.327 37.7817L974.801 38.632ZM986.513 49.96H987.513V1.19196H986.513H985.513V49.96H986.513ZM986.513 1.19196V2.19196H1002.64V1.19196V0.191956H986.513V1.19196ZM1002.64 1.19196H1001.64V137.512H1002.64H1003.64V1.19196H1002.64ZM1002.64 137.512V136.512H988.049V137.512V138.512H1002.64V137.512ZM988.049 137.512L989.048 137.474L988.472 122.114L987.473 122.152L986.473 122.189L987.049 137.549L988.049 137.512ZM987.473 122.152L986.582 121.696C983.856 127.025 979.834 131.237 974.49 134.343L974.993 135.208L975.495 136.072C981.16 132.779 985.457 128.287 988.363 122.607L987.473 122.152ZM974.993 135.208L974.505 134.335C969.17 137.313 963.006 138.816 955.985 138.816V139.816V140.816C963.3 140.816 969.808 139.247 975.48 136.081L974.993 135.208ZM956.945 124.456V125.456C963.262 125.456 968.72 123.874 973.265 120.665L972.689 119.848L972.112 119.031C967.954 121.966 962.915 123.456 956.945 123.456V124.456ZM972.689 119.848L973.254 120.673C977.914 117.477 981.422 112.961 983.79 107.171L982.865 106.792L981.939 106.413C979.7 111.887 976.423 116.075 972.123 119.023L972.689 119.848ZM982.865 106.792L983.786 107.181C986.28 101.273 987.513 94.4159 987.513 86.632H986.513H985.513C985.513 94.208 984.313 100.791 981.943 106.403L982.865 106.792ZM986.513 86.632H987.513C987.513 78.5979 986.282 71.6716 983.783 65.8835L982.865 66.28L981.947 66.6764C984.311 72.1523 985.513 78.794 985.513 86.632H986.513ZM982.865 66.28L983.79 65.9013C981.421 60.1086 977.909 55.6497 973.238 52.5803L972.689 53.416L972.14 54.2517C976.429 57.0702 979.701 61.1873 981.939 66.6586L982.865 66.28ZM972.689 53.416L973.254 52.5912C968.583 49.3881 963.002 47.808 956.561 47.808V48.808V49.808C962.663 49.808 967.834 51.2998 972.123 54.2407L972.689 53.416ZM956.561 48.808V47.808C947.918 47.808 940.965 51.3549 935.787 58.3913L936.593 58.984L937.398 59.5766C942.204 53.045 948.563 49.808 956.561 49.808V48.808ZM936.593 58.984L935.785 58.3939C930.753 65.2806 928.297 74.7316 928.297 86.632H929.297H930.297C930.297 74.9803 932.705 65.9993 937.4 59.574L936.593 58.984ZM929.297 86.632H928.297C928.297 98.4087 930.755 107.853 935.78 114.863L936.593 114.28L937.405 113.697C932.703 107.138 930.297 98.1513 930.297 86.632H929.297ZM936.593 114.28L935.787 114.873C940.972 121.918 948.058 125.456 956.945 125.456V124.456V123.456C948.68 123.456 942.198 120.21 937.398 113.687L936.593 114.28Z" fill="white" mask="url(#path-1-outside-1_96_10)"/>
</svg>
